<?xml version="1.0" standalone="no"?>
<!DOCTYPE svg PUBLIC "-//W3C//DTD SVG 20010904//EN"
 "http://www.w3.org/TR/2001/REC-SVG-20010904/DTD/svg10.dtd">
<svg version="1.0" xmlns="http://www.w3.org/2000/svg"
 width="512.000000pt" height="412.000000pt" viewBox="0 0 512.000000 512.000000"
 preserveAspectRatio="xMidYMid meet">

<g transform="translate(0.000000,512.000000) scale(0.100000,-0.100000)"
fill="#000000" stroke="none">
<path d="M442 4110 c-86 -23 -150 -56 -220 -113 -143 -119 -213 -271 -213
-461 1 -105 17 -169 69 -271 33 -65 113 -148 1081 -1116 907 -908 1055 -1051
1111 -1082 113 -61 160 -72 300 -72 142 1 206 19 315 90 40 26 395 373 1085
1064 1105 1105 1074 1072 1122 1226 33 103 30 242 -5 350 -49 148 -148 267
-283 337 -92 48 -173 68 -279 68 -105 0 -186 -20 -280 -68 -64 -32 -138 -103
-880 -844 l-810 -808 -800 801 c-540 540 -818 811 -855 834 -130 79 -311 105
-458 65z"/>
</g>
</svg>
